<svg width="1036" height="959" viewBox="0 0 1036 959" fill="none" xmlns="http://www.w3.org/2000/svg">
<ellipse cx="537" cy="499.5" rx="131" ry="131.5" stroke="white" stroke-width="43.53"/>
<ellipse cx="772" cy="398.115" rx="30" ry="30.1145" stroke="white" stroke-width="9.9687"/>
<path d="M147.188 250.626L155.344 233.751L171.656 225.313L155.344 216.875L147.188 200L139.031 216.875L122.719 225.313L139.031 233.751L147.188 250.626ZM73.7812 284.377L87.3716 256.253L114.562 242.188L87.3716 228.124L73.7812 200L60.1909 228.124L33 242.188L60.1909 256.253L73.7812 284.377ZM253.219 351.878L239.628 380.002L212.438 394.066L239.628 408.131L253.219 436.255L266.809 408.131L294 394.066L266.809 380.002L253.219 351.878ZM289.218 249.693L245.965 204.947C242.784 201.645 238.609 200 234.434 200C230.259 200 226.084 201.645 222.898 204.947L37.7816 396.45C31.4095 403.042 31.4095 413.726 37.7816 420.313L81.0352 465.059C84.2213 468.355 88.3962 470 92.5661 470C96.7411 470 100.916 468.355 104.102 465.059L289.218 273.55C295.59 266.969 295.59 256.279 289.218 249.693ZM216.235 307.295L190.283 280.448L234.429 234.779L260.381 261.627L216.235 307.295Z" fill="white"/>
<path d="M222 443.298V702.5C222 733.141 248.497 758 281.156 758H793.844C826.503 758 853 733.141 853 702.5V369.5C853 338.859 826.503 314 793.844 314H685.391L670.109 275.959C661.482 254.337 639.421 240 614.773 240H460.104C435.455 240 413.395 254.337 404.768 275.959L389.609 314H334.556" stroke="white" stroke-width="49"/>
</svg>
